<svg width="329" height="28" viewBox="0 0 329 28" fill="none" xmlns="http://www.w3.org/2000/svg">
<g clip-path="url(#clip0_184_29)">
<path d="M4.5944e-05 14.7675C4.5944e-05 5.58145 5.63262 0.883772 14.8036 0.162842C18.3179 0.325632 21.2305 0.953539 22.9155 1.72098L23.1562 6.13959H22.5544C19.7141 3.51168 17.1625 2.90703 14.5148 2.90703C9.38767 2.90703 5.7289 6.55819 5.7289 13.5582C5.7289 20.5582 9.1951 25.0466 15.3332 25.0466H18.4383V15.5814L13.6723 15.9535V13.3024H24.2634V13.7907C23.5172 15.2094 23.2284 15.721 23.2284 16.721V26.2791C22.2896 26.6512 18.8475 27.6977 13.8167 27.6977C5.99368 27.6977 -0.0480957 22.4884 -0.0480957 14.814L4.5944e-05 14.7675Z" fill="white"/>
<path d="M30.0405 24.1628V3.7674C30.0405 2.99996 29.7757 2.5581 28.8129 1.1395V0.651123H45.0366V3.69763H44.5311C43.0628 3.11624 42.3648 2.86043 41.4501 2.86043H35.0713V12.4883L42.437 12.0697V14.9302L35.0713 14.5581V25.1628L40.9687 24.9767C43.135 24.9069 44.2423 24.6046 45.494 23.7907L46.0476 24.0232L45.1329 27.3023H28.7888V26.8139C29.7276 25.3953 30.0164 24.9534 30.0164 24.186L30.0405 24.1628Z" fill="white"/>
<path d="M50.6209 24.1628V3.39531C50.6209 2.72089 50.3561 2.30229 49.3933 1.16275V0.674379H54.2075L68.3852 19.5116H68.6259V3.7674C68.6259 2.99996 68.4333 2.5581 67.5668 1.1395V0.651123H72.5976V1.1395C71.6829 2.5581 71.5625 2.99996 71.5625 3.7674V27.279H67.8556C67.5909 26.6976 67.2539 26.186 66.8206 25.6046L53.7983 8.44182H53.5576V24.1395C53.5576 24.9069 53.7501 25.3488 54.6167 26.7674V27.2558H49.5377V26.7674C50.4043 25.3488 50.5969 24.9069 50.5969 24.1395L50.6209 24.1628Z" fill="white"/>
<path d="M83.598 24.1628V2.86043H79.0246C78.1099 2.86043 77.3396 3.27903 76.3046 3.74415H75.7991V0.651123H96.3556V3.72089H95.8501C94.815 3.25577 94.0448 2.83717 93.1301 2.83717H88.5566V24.1395C88.5566 24.9069 88.8214 25.3488 89.7842 26.7674V27.2558H82.3945V26.7674C83.3332 25.3488 83.6221 24.9069 83.6221 24.1395L83.598 24.1628Z" fill="white"/>
<path d="M101.049 24.1628V3.7674C101.049 2.99996 100.785 2.5581 99.8218 1.1395V0.651123H107.308V1.1395C106.369 2.5581 106.08 2.99996 106.08 3.7674V25.1395L111.761 24.9534C114.12 24.8837 115.155 24.5814 116.334 23.7674L116.888 24L115.973 27.279H99.8218V26.7907C100.761 25.3721 101.049 24.9302 101.049 24.1628Z" fill="white"/>
<path d="M121.293 24.1628V3.7674C121.293 2.99996 121.028 2.5581 120.065 1.1395V0.651123H136.289V3.69763H135.784C134.315 3.11624 133.617 2.86043 132.703 2.86043H126.324V12.4883L133.689 12.0697V14.9302L126.324 14.5581V25.1628L132.221 24.9767C134.387 24.9069 135.495 24.6046 136.746 23.7907L137.3 24.0232L136.385 27.3023H120.041V26.8139C120.98 25.3953 121.269 24.9534 121.269 24.186L121.293 24.1628Z" fill="white"/>
<path d="M151.791 24.1628V3.7674C151.791 2.99996 151.526 2.5581 150.563 1.1395V0.651123H156.268L165.078 21.0465H165.318L174.538 0.651123H180.29V1.1395C179.352 2.5581 179.063 2.99996 179.063 3.7674V24.1628C179.063 24.9302 179.328 25.3721 180.29 26.7907V27.279H172.973V26.7907C173.912 25.3721 174.201 24.9302 174.201 24.1628V8.74415H173.96L165.487 27.2558H163.272L154.968 8.74415H154.727V24.1395C154.727 24.9069 154.92 25.3488 155.786 26.7674V27.2558H150.707V26.7674C151.574 25.3488 151.767 24.9069 151.767 24.1395L151.791 24.1628Z" fill="white"/>
<path d="M193.794 27.721C187.8 25.8605 184.455 20.5815 184.455 14.3256C184.455 5.69774 190.159 -0.0231934 199.571 -0.0231934C200.919 -0.0231934 202.243 0.0465741 203.591 0.232621C208.862 1.74425 212.762 7.04657 212.762 13.2791C212.762 22.1861 207.418 27.9536 197.838 27.9536C196.49 27.9536 194.998 27.8838 193.794 27.6977V27.721ZM199.571 25.5117C205.083 25.5117 207.129 20.9536 207.129 15.5815C207.129 8.81402 204.385 2.41867 197.645 2.41867C191.7 2.41867 190.087 7.67448 190.087 13.3256C190.087 19.8605 193.361 25.4884 199.571 25.4884V25.5117Z" fill="white"/>
<path d="M218.034 24.1628V3.39531C218.034 2.72089 217.769 2.30229 216.806 1.16275V0.674379H221.62L235.798 19.5116H236.038V3.7674C236.038 2.99996 235.846 2.5581 234.979 1.1395V0.651123H240.01V1.1395C239.095 2.5581 238.975 2.99996 238.975 3.7674V27.279H235.268C235.003 26.6976 234.666 26.186 234.233 25.6046L221.211 8.44182H220.97V24.1395C220.97 24.9069 221.163 25.3488 222.029 26.7674V27.2558H216.95V26.7674C217.817 25.3488 218.009 24.9069 218.009 24.1395L218.034 24.1628Z" fill="white"/>
<path d="M244.728 26.7443L244.126 21.9071H244.8C246.413 23.8838 248.748 25.3955 251.251 25.3955C253.755 25.3955 255.632 23.8373 255.632 21.4885C255.632 19.8606 254.404 18.2094 250.312 15.5117C246.606 13.0699 244.319 10.9769 244.319 7.53499C244.319 2.69778 248.218 0.232666 253.562 0.232666C255.127 0.232666 258.015 0.697782 259.122 1.11639L259.387 5.06988H258.761C257.895 3.86057 256.041 2.67453 253.201 2.67453C250.601 2.67453 248.868 4.04662 248.868 6.06988C248.868 8.09313 250.529 9.76755 253.995 12.1629C258.809 15.4652 260.302 17.3257 260.302 20.535C260.302 25.6745 255.704 27.721 250.818 27.721C249.013 27.721 246.365 27.3024 244.728 26.7676V26.7443Z" fill="white"/>
<path d="M270.58 24.1628V2.86043H266.007C265.092 2.86043 264.322 3.27903 263.287 3.74415H262.781V0.651123H283.338V3.72089H282.832C281.797 3.25577 281.027 2.83717 280.112 2.83717H275.539V24.1395C275.539 24.9069 275.804 25.3488 276.766 26.7674V27.2558H269.377V26.7674C270.315 25.3488 270.604 24.9069 270.604 24.1395L270.58 24.1628Z" fill="white"/>
<path d="M288.031 24.1628V3.7674C288.031 2.99996 287.767 2.5581 286.804 1.1395V0.651123H303.028V3.69763H302.522C301.054 3.11624 300.356 2.86043 299.441 2.86043H293.062V12.4883L300.428 12.0697V14.9302L293.062 14.5581V25.1628L298.96 24.9767C301.126 24.9069 302.233 24.6046 303.485 23.7907L304.039 24.0232L303.124 27.3023H286.78V26.8139C287.719 25.3953 288.007 24.9534 288.007 24.186L288.031 24.1628Z" fill="white"/>
<path d="M329 26.7674V27.2558H322.814C322.742 26.7907 322.381 26 322.02 25.3488L316.315 15.4186L313.595 15.3488V24.1395C313.595 24.9069 313.86 25.3488 314.822 26.7674V27.2558H307.505V26.7674C308.444 25.3488 308.732 24.9069 308.732 24.1395V3.7674C308.732 2.99996 308.468 2.5581 307.505 1.1395V0.651123H318.361C322.332 0.651123 326.4 3.65112 326.4 8.25577C326.4 11.4418 324.619 13.3488 321.394 15.2093L327.026 24.8372C327.46 25.6046 328.158 26.3255 329 26.7674ZM316.435 13.2558C319.083 13.186 321.442 11.5348 321.442 8.16275C321.442 4.79066 319.444 2.95345 316.363 2.88368L313.619 2.81391V13.3488L316.459 13.279L316.435 13.2558Z" fill="white"/>
</g>
<defs>
<clipPath id="clip0_184_29">
<rect width="329" height="28" fill="white"/>
</clipPath>
</defs>
</svg>
