<svg width="237" height="30" viewBox="0 0 237 30" fill="none" xmlns="http://www.w3.org/2000/svg">
<g clip-path="url(#clip0_184_18)">
<path d="M6.33557 0.666748V11.6544H18.0129V0.666748H24.3485V29.3334H18.0129V16.963H6.33557V29.3334H0V0.666748H6.33557Z" fill="white"/>
<path d="M27.0566 0.666748H34.1873L40.9204 11.9754L47.6286 0.666748H54.7095L44.0012 18.3211V29.3334H37.6408V18.1729L27.0566 0.666748Z" fill="white"/>
<path d="M70.4119 0.666748C72.2256 0.666748 73.7411 0.938353 75.0082 1.45687C76.2754 1.97539 77.294 2.66675 78.0891 3.53095C78.8841 4.39514 79.4556 5.35811 79.8283 6.46922C80.2009 7.58033 80.3748 8.69144 80.3748 9.87662C80.3748 11.0618 80.2009 12.1729 79.8283 13.2593C79.4556 14.3705 78.8841 15.3581 78.0891 16.1976C77.294 17.0618 76.2754 17.7532 75.0082 18.2717C73.7411 18.7902 72.2007 19.0618 70.4119 19.0618H63.7533V29.3334H57.4177V0.666748H70.4367H70.4119ZM68.6727 14.1482C69.3932 14.1482 70.0889 14.0988 70.7845 14.0001C71.4554 13.9013 72.0516 13.6791 72.5734 13.3828C73.0952 13.0865 73.4927 12.6421 73.8157 12.0742C74.1138 11.5063 74.2877 10.7655 74.2877 9.87662C74.2877 8.98774 74.1387 8.2223 73.8157 7.67909C73.5175 7.11119 73.0952 6.69144 72.5734 6.37045C72.0516 6.07416 71.4554 5.85193 70.7845 5.75317C70.1137 5.6544 69.418 5.60502 68.6727 5.60502H63.7533V14.1976H68.6727V14.1482Z" fill="white"/>
<path d="M104.673 0.666748V5.97539H89.4432V12.0988H103.406V17.0124H89.4432V24.0248H104.996V29.3334H83.1077V0.666748H104.673Z" fill="white"/>
<path d="M121.27 0.666748C122.637 0.666748 123.904 0.790205 125.022 1.03712C126.165 1.28403 127.134 1.67909 127.929 2.2223C128.749 2.76551 129.37 3.50625 129.817 4.41983C130.264 5.33341 130.488 6.44453 130.488 7.80255C130.488 9.25934 130.165 10.4445 129.494 11.4075C128.823 12.3705 127.854 13.1606 126.562 13.7779C128.351 14.2964 129.668 15.1853 130.537 16.4445C131.407 17.7285 131.854 19.2593 131.854 21.0371C131.854 22.4692 131.581 23.7285 131.01 24.7902C130.438 25.8519 129.693 26.7161 128.724 27.3828C127.755 28.0495 126.686 28.5433 125.444 28.8643C124.227 29.1853 122.96 29.3334 121.668 29.3334H107.705V0.666748H121.27ZM120.45 12.2717C121.593 12.2717 122.512 12.0001 123.233 11.4569C123.953 10.9137 124.326 10.0495 124.326 8.83959C124.326 8.17292 124.202 7.62971 123.953 7.18527C123.705 6.76551 123.382 6.41983 122.984 6.17292C122.587 5.92601 122.115 5.77786 121.593 5.67909C121.071 5.58033 120.525 5.53095 119.953 5.53095H114.015V12.247H120.425L120.45 12.2717ZM120.823 24.4445C121.444 24.4445 122.04 24.3705 122.612 24.2717C123.183 24.1482 123.68 23.9507 124.103 23.6791C124.525 23.4075 124.873 23.0124 125.146 22.5433C125.394 22.0742 125.519 21.4569 125.519 20.6914C125.519 19.2346 125.096 18.1729 124.276 17.5309C123.432 16.9137 122.339 16.5927 120.972 16.5927H114.065V24.4692H120.848L120.823 24.4445Z" fill="white"/>
<path d="M156.128 0.666748V5.97539H140.898V12.0988H154.886V17.0124H140.898V24.0248H156.451V29.3334H134.562V0.666748H156.128Z" fill="white"/>
<path d="M176.576 0.666748L187.359 29.3334H180.775L178.589 22.9384H167.806L165.545 29.3334H159.16L170.067 0.666748H176.576ZM176.949 18.247L173.322 7.72848H173.247L169.495 18.247H176.974H176.949Z" fill="white"/>
<path d="M194.017 22.2716C194.365 22.9383 194.837 23.4815 195.409 23.9012C195.98 24.321 196.676 24.6173 197.446 24.8148C198.216 25.0123 199.036 25.1111 199.881 25.1111C200.452 25.1111 201.048 25.0617 201.694 24.963C202.34 24.8642 202.937 24.6914 203.508 24.4198C204.08 24.1482 204.552 23.7778 204.924 23.3086C205.297 22.8395 205.496 22.2469 205.496 21.5309C205.496 20.7654 205.247 20.1235 204.75 19.6543C204.254 19.1605 203.608 18.7654 202.788 18.4444C201.968 18.1235 201.073 17.8519 200.03 17.6049C199.011 17.358 197.968 17.0864 196.924 16.8148C195.856 16.5432 194.787 16.2222 193.769 15.8272C192.75 15.4321 191.831 14.9383 191.011 14.321C190.191 13.7037 189.545 12.9383 189.048 12.0247C188.551 11.1111 188.303 9.97531 188.303 8.66667C188.303 7.18519 188.626 5.92593 189.247 4.83951C189.893 3.75309 190.713 2.83951 191.731 2.12346C192.75 1.40741 193.918 0.864198 195.21 0.518519C196.502 0.17284 197.794 0 199.086 0C200.601 0 202.042 0.17284 203.434 0.493827C204.825 0.839506 206.067 1.35802 207.136 2.12346C208.204 2.8642 209.074 3.82716 209.695 4.98765C210.316 6.14815 210.639 7.55556 210.639 9.23457H204.502C204.452 8.37037 204.254 7.67901 203.955 7.11111C203.657 6.54321 203.235 6.09877 202.738 5.77778C202.216 5.45679 201.645 5.23457 200.974 5.08642C200.303 4.96296 199.583 4.88889 198.812 4.88889C198.291 4.88889 197.794 4.93827 197.272 5.06173C196.75 5.16049 196.303 5.35803 195.881 5.62963C195.458 5.90124 195.11 6.22222 194.862 6.64198C194.589 7.03704 194.464 7.55556 194.464 8.17284C194.464 8.74074 194.564 9.18519 194.787 9.53086C195.011 9.87654 195.433 10.1975 196.055 10.4938C196.676 10.7901 197.57 11.0864 198.688 11.3827C199.806 11.679 201.272 12.0494 203.061 12.5185C203.608 12.6173 204.353 12.8148 205.297 13.1111C206.241 13.3827 207.21 13.8519 208.154 14.4444C209.098 15.0617 209.918 15.8765 210.589 16.9136C211.285 17.9506 211.608 19.2593 211.608 20.8642C211.608 22.1728 211.359 23.3827 210.838 24.5185C210.316 25.6296 209.57 26.6173 208.552 27.4321C207.533 28.2469 206.291 28.8889 204.8 29.3333C203.309 29.7778 201.57 30.0247 199.607 30.0247C198.017 30.0247 196.477 29.8272 194.986 29.4568C193.496 29.0617 192.179 28.4691 191.036 27.6296C189.893 26.7901 188.974 25.7531 188.303 24.4691C187.632 23.1852 187.309 21.6543 187.334 19.9012H193.471C193.471 20.8642 193.645 21.679 193.992 22.3457" fill="white"/>
<path d="M213.372 5.97539V0.666748H237V5.97539H228.354V29.3334H222.018V5.97539H213.372Z" fill="white"/>
</g>
<defs>
<clipPath id="clip0_184_18">
<rect width="237" height="30" fill="white"/>
</clipPath>
</defs>
</svg>
