<svg width="334" height="30" viewBox="0 0 334 30" fill="none" xmlns="http://www.w3.org/2000/svg">
<g clip-path="url(#clip0_184_4)">
<path d="M13.9034 0L27.8067 29.6709H22.7956L19.8233 23.1392H7.93425L4.96198 29.6709H0L13.9034 0ZM9.92395 18.7595H17.8091L13.8788 10.0759L9.89939 18.7595H9.92395Z" fill="white"/>
<path d="M36.0357 10.9367V29.6456H31.3931V0L50.8234 19.038V0.329114H55.466V30L36.0357 10.962V10.9367Z" fill="white"/>
<path d="M61.8037 0.329102H70.8188C79.318 0.329102 85.7293 6.68353 85.7293 14.9873C85.7293 23.2911 79.318 29.6456 70.8188 29.6456H61.8037V0.329102ZM70.8188 25.1899C76.9598 25.1899 80.9884 20.7595 80.9884 14.9873C80.9884 9.21518 76.9353 4.7848 70.8188 4.7848H66.4464V25.1899H70.8188Z" fill="white"/>
<path d="M90.4209 0.329102H107.297V5.03796H95.0635V12.481H104.889V17.1139H95.0635V24.962H107.297V29.6709H90.4209V0.329102Z" fill="white"/>
<path d="M119.579 17.1899H116.901V29.6709H112.259V0.329102H121.47C126.751 0.329102 130.534 3.84809 130.534 8.75948C130.534 12.5569 128.299 15.5696 124.688 16.7342L133.752 29.6709H128.176L119.603 17.1899H119.579ZM121.028 13.0126C124.246 13.0126 125.793 11.3924 125.793 8.91138C125.793 6.43037 124.221 4.73416 121.028 4.73416H116.901V12.9873H121.028V13.0126Z" fill="white"/>
<path d="M134.809 24.9873L138.346 21.924C139.672 23.7721 141.883 25.443 144.364 25.443C147.14 25.443 148.737 24.1518 148.737 22.0506C148.737 19.9493 147.41 18.5822 144.61 17.2911L142.374 16.3037C138.076 14.3544 135.963 11.5442 135.963 7.74676C135.963 3.0379 140.09 -0.0253906 144.413 -0.0253906C147.705 -0.0253906 150.309 1.13917 152.397 3.69613L149.179 7.11385C147.705 5.29106 146.403 4.50625 144.364 4.50625C142.448 4.50625 140.606 5.67081 140.606 7.69613C140.606 9.59486 141.883 10.962 144.733 12.2025L146.943 13.2404C150.824 14.9873 153.477 17.5442 153.477 21.6202C153.477 26.5822 149.916 29.9746 144.413 29.9746C140.114 29.9746 136.626 27.9999 134.833 24.9873H134.809Z" fill="white"/>
<path d="M155.565 24.9873L159.103 21.924C160.429 23.7721 162.64 25.443 165.121 25.443C167.897 25.443 169.493 24.1518 169.493 22.0506C169.493 19.9493 168.167 18.5822 165.367 17.2911L163.131 16.3037C158.832 14.3544 156.72 11.5442 156.72 7.74676C156.72 3.0379 160.847 -0.0253906 165.17 -0.0253906C168.462 -0.0253906 171.065 1.13917 173.153 3.69613L169.936 7.11385C168.462 5.29106 167.16 4.50625 165.121 4.50625C163.205 4.50625 161.363 5.67081 161.363 7.69613C161.363 9.59486 162.64 10.962 165.489 12.2025L167.7 13.2404C171.581 14.9873 174.234 17.5442 174.234 21.6202C174.234 26.5822 170.672 29.9746 165.17 29.9746C160.871 29.9746 157.383 27.9999 155.59 24.9873H155.565Z" fill="white"/>
<path d="M177.034 14.9873C177.034 6.50633 183.519 0 191.576 0C199.634 0 206.118 6.53165 206.118 14.9873C206.118 23.443 199.658 29.9747 191.576 29.9747C183.495 29.9747 177.034 23.443 177.034 14.9873ZM201.402 14.9873C201.402 9.11392 197.202 4.53164 191.576 4.53164C185.951 4.53164 181.751 9.11392 181.751 14.9873C181.751 20.8608 185.951 25.443 191.576 25.443C197.202 25.443 201.402 20.8608 201.402 14.9873Z" fill="white"/>
<path d="M215.478 10.9367V29.6456H210.835V0L230.265 19.038V0.329114H234.908V30L215.478 10.962V10.9367Z" fill="white"/>
<path d="M250.481 0.329102H260.553C265.736 0.329102 268.929 3.99999 268.929 8.35442C268.929 10.9873 267.971 12.8101 266.276 14.0506C268.929 15.2152 270.845 17.5949 270.845 21.2405C270.845 26.3544 266.866 29.6709 261.388 29.6709H250.481V0.329102ZM259.939 12.6835C262.788 12.6835 264.237 10.9367 264.237 8.70885C264.237 6.481 262.788 4.73416 259.939 4.73416H255.124V12.6582H259.939V12.6835ZM261.388 25.1899C264.606 25.1899 266.153 23.4177 266.153 21.0126C266.153 18.6076 264.581 16.7595 261.388 16.7595H255.124V25.1899H261.388Z" fill="white"/>
<path d="M275.341 0.329102H292.216V5.03796H279.983V12.481H289.809V17.1139H279.983V24.962H292.216V29.6709H275.341V0.329102Z" fill="white"/>
<path d="M297.129 0.329102H301.772V24.9114H313.759V29.6709H297.129V0.329102Z" fill="white"/>
<path d="M317.37 0.329102H322.013V24.9114H334V29.6709H317.37V0.329102Z" fill="white"/>
</g>
<defs>
<clipPath id="clip0_184_4">
<rect width="334" height="30" fill="white"/>
</clipPath>
</defs>
</svg>
