<svg width="192" height="150" viewBox="0 0 192 150" fill="none" xmlns="http://www.w3.org/2000/svg">
<g clip-path="url(#clip0_133_128)">
<path d="M93.2702 102.147C93.2702 132.758 72.9435 150 46.7047 150C18.8649 150 0.263531 132.511 0.263531 101.9C0.263531 73.6636 19.1135 55.2969 46.7047 55.2969C78.3633 55.2969 93.2702 78.4091 93.2702 102.152V102.147ZM29.3315 102.147C29.3315 113.64 32.7823 128.012 46.6997 128.012C59.2647 128.012 64.1923 117.019 64.1923 102.147C64.1923 89.9022 59.2647 76.9063 46.4511 77.2845C33.2696 77.2845 29.3266 90.7797 29.3266 102.147H29.3315Z" fill="white"/>
<path d="M93.5337 24.9277C93.5337 41.2167 73.0927 50.39 46.7047 50.39C18.7058 50.39 0 41.0806 0 24.7966C0 9.7734 18.9544 0 46.7047 0C78.5423 0 93.5337 12.3 93.5337 24.9277ZM29.2371 24.9277C29.2371 31.0449 32.7077 38.6902 46.7047 38.6902C59.3393 38.6902 64.2967 32.8402 64.2967 24.9277C64.2967 18.4121 59.3393 11.4981 46.4561 11.6998C33.2 11.6998 29.2371 18.8811 29.2371 24.9277Z" fill="white"/>
<path d="M191.741 102.147C191.741 132.758 171.415 150 145.176 150C117.336 150 98.7348 132.506 98.7348 101.894C98.7348 73.6585 117.585 55.2918 145.176 55.2918C176.835 55.2918 191.741 78.404 191.741 102.147ZM127.803 102.147C127.803 113.64 131.254 128.012 145.171 128.012C157.736 128.012 162.663 117.019 162.663 102.147C162.663 89.9022 157.736 76.9063 144.922 77.2845C131.741 77.2845 127.798 90.7796 127.798 102.147H127.803Z" fill="white"/>
<path d="M192 24.9277C192 41.2167 171.559 50.39 145.171 50.39C117.172 50.39 98.4662 41.0856 98.4662 24.7966C98.4662 9.7734 117.421 0 145.171 0C177.009 0 192 12.3 192 24.9277ZM127.703 24.9277C127.703 31.0449 131.174 38.6902 145.171 38.6902C157.806 38.6902 162.763 32.8402 162.763 24.9277C162.763 18.4121 157.806 11.4981 144.922 11.6998C131.666 11.6998 127.703 18.8811 127.703 24.9277Z" fill="white"/>
</g>
<defs>
<clipPath id="clip0_133_128">
<rect width="192" height="150" fill="white"/>
</clipPath>
</defs>
</svg>
